<svg id="visual" viewBox="0 0 960 50" width="960" height="50" xmlns="http://www.w3.org/2000/svg" xmlns:xlink="http://www.w3.org/1999/xlink" version="1.1"><rect x="0" y="0" width="960" height="50" fill="#0f0d11"></rect><path d="M0 34L14.5 32.5C29 31 58 28 87.2 26.7C116.3 25.3 145.7 25.7 174.8 23.8C204 22 233 18 262 16.5C291 15 320 16 349 18.8C378 21.7 407 26.3 436.2 25.8C465.3 25.3 494.7 19.7 523.8 18.3C553 17 582 20 611 20.2C640 20.3 669 17.7 698 16C727 14.3 756 13.7 785.2 15.7C814.3 17.7 843.7 22.3 872.8 22.2C902 22 931 17 945.5 14.5L960 12L960 51L945.5 51C931 51 902 51 872.8 51C843.7 51 814.3 51 785.2 51C756 51 727 51 698 51C669 51 640 51 611 51C582 51 553 51 523.8 51C494.7 51 465.3 51 436.2 51C407 51 378 51 349 51C320 51 291 51 262 51C233 51 204 51 174.8 51C145.7 51 116.3 51 87.2 51C58 51 29 51 14.5 51L0 51Z" fill="#050309" stroke-linecap="round" stroke-linejoin="miter"></path></svg>